{
 "cells": [
  {
   "cell_type": "code",
   "execution_count": 5,
   "id": "5c3935b4-2aa4-41c6-b655-6d78d31828bc",
   "metadata": {},
   "outputs": [],
   "source": [
    "from pydub import AudioSegment\n",
    "import os\n",
    "from youtube_dl import YoutubeDL\n",
    "\n",
    "import os\n",
    "\n",
    "video_url = 'https://www.youtube.com/watch?v=nxtX1qGrMCo'\n",
    "filename = './data/beeBird/'"
   ]
  },
  {
   "cell_type": "code",
   "execution_count": 6,
   "id": "9bc7fd4c-c1d5-4fbd-b475-bfef2c64133f",
   "metadata": {
    "tags": []
   },
   "outputs": [
    {
     "name": "stdout",
     "output_type": "stream",
     "text": [
      "[youtube] nxtX1qGrMCo: Downloading webpage\n",
      "[youtube] nxtX1qGrMCo: Downloading MPD manifest\n",
      "[download] Destination: data\\beeBird\\beeBird.mp3\n",
      "[download] 100% of 433.00KiB in 00:08                 \n",
      "[ffmpeg] Correcting container in \"data\\beeBird\\beeBird.mp3\"\n",
      "[ffmpeg] Post-process file data\\beeBird\\beeBird.mp3 exists, skipping\n"
     ]
    }
   ],
   "source": [
    "ydl_opts = {\n",
    "    'format': 'bestaudio/best',\n",
    "    'postprocessors': [{\n",
    "        'key': 'FFmpegExtractAudio',\n",
    "        'preferredcodec': 'mp3',\n",
    "        'preferredquality': '192',\n",
    "    }],\n",
    "    'outtmpl':filename\n",
    "}\n",
    "with YoutubeDL(ydl_opts) as ydl:\n",
    "    ydl.download([video_url])\n"
   ]
  },
  {
   "cell_type": "code",
   "execution_count": 7,
   "id": "3d70f8dc-bef5-4756-b1e4-916a53bdfccc",
   "metadata": {
    "tags": []
   },
   "outputs": [
    {
     "ename": "CouldntDecodeError",
     "evalue": "Decoding failed. ffmpeg returned error code: 1\n\nOutput from ffmpeg/avlib:\n\nffmpeg version 5.0.1-essentials_build-www.gyan.dev Copyright (c) 2000-2022 the FFmpeg developers\r\n  built with gcc 11.2.0 (Rev7, Built by MSYS2 project)\r\n  configuration: --enable-gpl --enable-version3 --enable-static --disable-w32threads --disable-autodetect --enable-fontconfig --enable-iconv --enable-gnutls --enable-libxml2 --enable-gmp --enable-lzma --enable-zlib --enable-libsrt --enable-libssh --enable-libzmq --enable-avisynth --enable-sdl2 --enable-libwebp --enable-libx264 --enable-libx265 --enable-libxvid --enable-libaom --enable-libopenjpeg --enable-libvpx --enable-libass --enable-libfreetype --enable-libfribidi --enable-libvidstab --enable-libvmaf --enable-libzimg --enable-amf --enable-cuda-llvm --enable-cuvid --enable-ffnvcodec --enable-nvdec --enable-nvenc --enable-d3d11va --enable-dxva2 --enable-libmfx --enable-libgme --enable-libopenmpt --enable-libopencore-amrwb --enable-libmp3lame --enable-libtheora --enable-libvo-amrwbenc --enable-libgsm --enable-libopencore-amrnb --enable-libopus --enable-libspeex --enable-libvorbis --enable-librubberband\r\n  libavutil      57. 17.100 / 57. 17.100\r\n  libavcodec     59. 18.100 / 59. 18.100\r\n  libavformat    59. 16.100 / 59. 16.100\r\n  libavdevice    59.  4.100 / 59.  4.100\r\n  libavfilter     8. 24.100 /  8. 24.100\r\n  libswscale      6.  4.100 /  6.  4.100\r\n  libswresample   4.  3.100 /  4.  3.100\r\n  libpostproc    56.  3.100 / 56.  3.100\r\n[mp3float @ 0000026ee2ff4f00] Header missing\r\n    Last message repeated 87 times\r\n[mp3 @ 0000026ee2febd00] Could not find codec parameters for stream 0 (Audio: mp3 (mp3float), 0 channels, fltp): unspecified frame size\r\nConsider increasing the value for the 'analyzeduration' (0) and 'probesize' (5000000) options\r\nInput #0, mp3, from './data/beeBird/beeBird.mp3':\r\n  Duration: N/A, start: 0.000000, bitrate: N/A\r\n  Stream #0:0: Audio: mp3, 0 channels, fltp\r\nStream mapping:\r\n  Stream #0:0 -> #0:0 (mp3 (mp3float) -> pcm_s16le (native))\r\nPress [q] to stop, [?] for help\r\n[mp3float @ 0000026ee2fffc00] Header missing\r\nError while decoding stream #0:0: Invalid data found when processing input\r\n[mp3float @ 0000026ee2fffc00] Header missing\r\nError while decoding stream #0:0: Invalid data found when processing input\r\n[mp3float @ 0000026ee2fffc00] Header missing\r\nError while decoding stream #0:0: Invalid data found when processing input\r\n[mp3float @ 0000026ee2fffc00] Header missing\r\nError while decoding stream #0:0: Invalid data found when processing input\r\n[mp3float @ 0000026ee2fffc00] Header missing\r\nError while decoding stream #0:0: Invalid data found when processing input\r\n[mp3float @ 0000026ee2fffc00] Header missing\r\nError while decoding stream #0:0: Invalid data found when processing input\r\n[mp3float @ 0000026ee2fffc00] Header missing\r\nError while decoding stream #0:0: Invalid data found when processing input\r\n[mp3float @ 0000026ee2fffc00] Header missing\r\nError while decoding stream #0:0: Invalid data found when processing input\r\n[mp3float @ 0000026ee2fffc00] Header missing\r\nError while decoding stream #0:0: Invalid data found when processing input\r\n[mp3float @ 0000026ee2fffc00] Header missing\r\nError while decoding stream #0:0: Invalid data found when processing input\r\n[mp3float @ 0000026ee2fffc00] Header missing\r\nError while decoding stream #0:0: Invalid data found when processing input\r\n[mp3float @ 0000026ee2fffc00] Header missing\r\nError while decoding stream #0:0: Invalid data found when processing input\r\n[mp3float @ 0000026ee2fffc00] Header missing\r\nError while decoding stream #0:0: Invalid data found when processing input\r\n[mp3float @ 0000026ee2fffc00] Header missing\r\nError while decoding stream #0:0: Invalid data found when processing input\r\n[mp3float @ 0000026ee2fffc00] Header missing\r\nError while decoding stream #0:0: Invalid data found when processing input\r\n[mp3float @ 0000026ee2fffc00] Header missing\r\nError while decoding stream #0:0: Invalid data found when processing input\r\n[mp3float @ 0000026ee2fffc00] Header missing\r\nError while decoding stream #0:0: Invalid data found when processing input\r\n[mp3float @ 0000026ee2fffc00] Header missing\r\nError while decoding stream #0:0: Invalid data found when processing input\r\n[mp3float @ 0000026ee2fffc00] Header missing\r\nError while decoding stream #0:0: Invalid data found when processing input\r\n[mp3float @ 0000026ee2fffc00] Header missing\r\nError while decoding stream #0:0: Invalid data found when processing input\r\n[mp3float @ 0000026ee2fffc00] Header missing\r\nError while decoding stream #0:0: Invalid data found when processing input\r\n[mp3float @ 0000026ee2fffc00] Header missing\r\nError while decoding stream #0:0: Invalid data found when processing input\r\n[mp3float @ 0000026ee2fffc00] Header missing\r\nError while decoding stream #0:0: Invalid data found when processing input\r\n[mp3float @ 0000026ee2fffc00] Header missing\r\nError while decoding stream #0:0: Invalid data found when processing input\r\n[mp3float @ 0000026ee2fffc00] Header missing\r\nError while decoding stream #0:0: Invalid data found when processing input\r\n[mp3float @ 0000026ee2fffc00] Header missing\r\nError while decoding stream #0:0: Invalid data found when processing input\r\n[mp3float @ 0000026ee2fffc00] Header missing\r\nError while decoding stream #0:0: Invalid data found when processing input\r\n[mp3float @ 0000026ee2fffc00] Header missing\r\nError while decoding stream #0:0: Invalid data found when processing input\r\n[mp3float @ 0000026ee2fffc00] Header missing\r\nError while decoding stream #0:0: Invalid data found when processing input\r\n[mp3float @ 0000026ee2fffc00] Header missing\r\nError while decoding stream #0:0: Invalid data found when processing input\r\n[mp3float @ 0000026ee2fffc00] Header missing\r\nError while decoding stream #0:0: Invalid data found when processing input\r\n[mp3float @ 0000026ee2fffc00] Header missing\r\nError while decoding stream #0:0: Invalid data found when processing input\r\n[mp3float @ 0000026ee2fffc00] Header missing\r\nError while decoding stream #0:0: Invalid data found when processing input\r\n[mp3float @ 0000026ee2fffc00] Header missing\r\nError while decoding stream #0:0: Invalid data found when processing input\r\n[mp3float @ 0000026ee2fffc00] Header missing\r\nError while decoding stream #0:0: Invalid data found when processing input\r\n[mp3float @ 0000026ee2fffc00] Header missing\r\nError while decoding stream #0:0: Invalid data found when processing input\r\n[mp3float @ 0000026ee2fffc00] Header missing\r\nError while decoding stream #0:0: Invalid data found when processing input\r\n[mp3float @ 0000026ee2fffc00] Header missing\r\nError while decoding stream #0:0: Invalid data found when processing input\r\n[mp3float @ 0000026ee2fffc00] Header missing\r\nError while decoding stream #0:0: Invalid data found when processing input\r\n[mp3float @ 0000026ee2fffc00] Header missing\r\nError while decoding stream #0:0: Invalid data found when processing input\r\n[mp3float @ 0000026ee2fffc00] Header missing\r\nError while decoding stream #0:0: Invalid data found when processing input\r\n[mp3float @ 0000026ee2fffc00] Header missing\r\nError while decoding stream #0:0: Invalid data found when processing input\r\n[mp3float @ 0000026ee2fffc00] Header missing\r\nError while decoding stream #0:0: Invalid data found when processing input\r\n[mp3float @ 0000026ee2fffc00] Header missing\r\nError while decoding stream #0:0: Invalid data found when processing input\r\n[mp3float @ 0000026ee2fffc00] Header missing\r\nError while decoding stream #0:0: Invalid data found when processing input\r\n[mp3float @ 0000026ee2fffc00] Header missing\r\nError while decoding stream #0:0: Invalid data found when processing input\r\n[mp3float @ 0000026ee2fffc00] Header missing\r\nError while decoding stream #0:0: Invalid data found when processing input\r\n[mp3float @ 0000026ee2fffc00] Header missing\r\nError while decoding stream #0:0: Invalid data found when processing input\r\n[mp3float @ 0000026ee2fffc00] Header missing\r\nError while decoding stream #0:0: Invalid data found when processing input\r\n[mp3float @ 0000026ee2fffc00] Header missing\r\nError while decoding stream #0:0: Invalid data found when processing input\r\n[mp3float @ 0000026ee2fffc00] Header missing\r\nError while decoding stream #0:0: Invalid data found when processing input\r\n[mp3float @ 0000026ee2fffc00] Header missing\r\nError while decoding stream #0:0: Invalid data found when processing input\r\n[mp3float @ 0000026ee2fffc00] Header missing\r\nError while decoding stream #0:0: Invalid data found when processing input\r\n[mp3float @ 0000026ee2fffc00] Header missing\r\nError while decoding stream #0:0: Invalid data found when processing input\r\n[mp3float @ 0000026ee2fffc00] Header missing\r\nError while decoding stream #0:0: Invalid data found when processing input\r\n[mp3float @ 0000026ee2fffc00] Header missing\r\nError while decoding stream #0:0: Invalid data found when processing input\r\n[mp3float @ 0000026ee2fffc00] Header missing\r\nError while decoding stream #0:0: Invalid data found when processing input\r\n[mp3float @ 0000026ee2fffc00] Header missing\r\nError while decoding stream #0:0: Invalid data found when processing input\r\n[mp3float @ 0000026ee2fffc00] Header missing\r\nError while decoding stream #0:0: Invalid data found when processing input\r\n[mp3float @ 0000026ee2fffc00] Header missing\r\nError while decoding stream #0:0: Invalid data found when processing input\r\n[mp3float @ 0000026ee2fffc00] Header missing\r\nError while decoding stream #0:0: Invalid data found when processing input\r\n[mp3float @ 0000026ee2fffc00] Header missing\r\nError while decoding stream #0:0: Invalid data found when processing input\r\n[mp3float @ 0000026ee2fffc00] Header missing\r\nError while decoding stream #0:0: Invalid data found when processing input\r\n[mp3float @ 0000026ee2fffc00] Header missing\r\nError while decoding stream #0:0: Invalid data found when processing input\r\n[mp3float @ 0000026ee2fffc00] Header missing\r\nError while decoding stream #0:0: Invalid data found when processing input\r\n[mp3float @ 0000026ee2fffc00] Header missing\r\nError while decoding stream #0:0: Invalid data found when processing input\r\n[mp3float @ 0000026ee2fffc00] Header missing\r\nError while decoding stream #0:0: Invalid data found when processing input\r\n[mp3float @ 0000026ee2fffc00] Header missing\r\nError while decoding stream #0:0: Invalid data found when processing input\r\n[mp3float @ 0000026ee2fffc00] Header missing\r\nError while decoding stream #0:0: Invalid data found when processing input\r\n[mp3float @ 0000026ee2fffc00] Header missing\r\nError while decoding stream #0:0: Invalid data found when processing input\r\n[mp3float @ 0000026ee2fffc00] Header missing\r\nError while decoding stream #0:0: Invalid data found when processing input\r\n[mp3float @ 0000026ee2fffc00] Header missing\r\nError while decoding stream #0:0: Invalid data found when processing input\r\n[mp3float @ 0000026ee2fffc00] Header missing\r\nError while decoding stream #0:0: Invalid data found when processing input\r\n[mp3float @ 0000026ee2fffc00] Header missing\r\nError while decoding stream #0:0: Invalid data found when processing input\r\n[mp3float @ 0000026ee2fffc00] Header missing\r\nError while decoding stream #0:0: Invalid data found when processing input\r\n[mp3float @ 0000026ee2fffc00] Header missing\r\nError while decoding stream #0:0: Invalid data found when processing input\r\n[mp3float @ 0000026ee2fffc00] Header missing\r\nError while decoding stream #0:0: Invalid data found when processing input\r\n[mp3float @ 0000026ee2fffc00] Header missing\r\nError while decoding stream #0:0: Invalid data found when processing input\r\n[mp3float @ 0000026ee2fffc00] Header missing\r\nError while decoding stream #0:0: Invalid data found when processing input\r\n[mp3float @ 0000026ee2fffc00] Header missing\r\nError while decoding stream #0:0: Invalid data found when processing input\r\n[mp3float @ 0000026ee2fffc00] Header missing\r\nError while decoding stream #0:0: Invalid data found when processing input\r\n[mp3float @ 0000026ee2fffc00] Header missing\r\nError while decoding stream #0:0: Invalid data found when processing input\r\n[mp3float @ 0000026ee2fffc00] Header missing\r\nError while decoding stream #0:0: Invalid data found when processing input\r\n[mp3float @ 0000026ee2fffc00] Header missing\r\nError while decoding stream #0:0: Invalid data found when processing input\r\n[mp3float @ 0000026ee2fffc00] Header missing\r\nError while decoding stream #0:0: Invalid data found when processing input\r\n[mp3float @ 0000026ee2fffc00] Header missing\r\nError while decoding stream #0:0: Invalid data found when processing input\r\n[mp3float @ 0000026ee2fffc00] Header missing\r\nError while decoding stream #0:0: Invalid data found when processing input\r\n[mp3float @ 0000026ee2fffc00] Header missing\r\nError while decoding stream #0:0: Invalid data found when processing input\r\n[abuffer @ 0000026ee3066b00] Value inf for parameter 'time_base' out of range [0 - 2.14748e+09]\r\n    Last message repeated 3 times\r\n[abuffer @ 0000026ee3066b00] Error setting option time_base to value 1/0.\r\n[graph_0_in_0_0 @ 0000026ee302f180] Error applying options to the filter.\r\nError reinitializing filters!\r\nError while filtering: Result too large\r\nFinishing stream 0:0 without any data written to it.\r\n[abuffer @ 0000026ee30665c0] Value inf for parameter 'time_base' out of range [0 - 2.14748e+09]\r\n    Last message repeated 3 times\r\n[abuffer @ 0000026ee30665c0] Error setting option time_base to value 1/0.\r\n[graph_0_in_0_0 @ 0000026ee2ffec40] Error applying options to the filter.\r\nError configuring filter graph\r\nConversion failed!\r\n",
     "output_type": "error",
     "traceback": [
      "\u001b[1;31m---------------------------------------------------------------------------\u001b[0m",
      "\u001b[1;31mCouldntDecodeError\u001b[0m                        Traceback (most recent call last)",
      "Input \u001b[1;32mIn [7]\u001b[0m, in \u001b[0;36m<cell line: 1>\u001b[1;34m()\u001b[0m\n\u001b[1;32m----> 1\u001b[0m song \u001b[38;5;241m=\u001b[39m \u001b[43mAudioSegment\u001b[49m\u001b[38;5;241;43m.\u001b[39;49m\u001b[43mfrom_mp3\u001b[49m\u001b[43m(\u001b[49m\u001b[38;5;124;43m'\u001b[39;49m\u001b[38;5;124;43m./data/beeBird/beeBird.mp3\u001b[39;49m\u001b[38;5;124;43m'\u001b[39;49m\u001b[43m)\u001b[49m\n",
      "File \u001b[1;32mc:\\python39\\lib\\site-packages\\pydub\\audio_segment.py:796\u001b[0m, in \u001b[0;36mAudioSegment.from_mp3\u001b[1;34m(cls, file, parameters)\u001b[0m\n\u001b[0;32m    794\u001b[0m \u001b[38;5;129m@classmethod\u001b[39m\n\u001b[0;32m    795\u001b[0m \u001b[38;5;28;01mdef\u001b[39;00m \u001b[38;5;21mfrom_mp3\u001b[39m(\u001b[38;5;28mcls\u001b[39m, file, parameters\u001b[38;5;241m=\u001b[39m\u001b[38;5;28;01mNone\u001b[39;00m):\n\u001b[1;32m--> 796\u001b[0m     \u001b[38;5;28;01mreturn\u001b[39;00m \u001b[38;5;28;43mcls\u001b[39;49m\u001b[38;5;241;43m.\u001b[39;49m\u001b[43mfrom_file\u001b[49m\u001b[43m(\u001b[49m\u001b[43mfile\u001b[49m\u001b[43m,\u001b[49m\u001b[43m \u001b[49m\u001b[38;5;124;43m'\u001b[39;49m\u001b[38;5;124;43mmp3\u001b[39;49m\u001b[38;5;124;43m'\u001b[39;49m\u001b[43m,\u001b[49m\u001b[43m \u001b[49m\u001b[43mparameters\u001b[49m\u001b[38;5;241;43m=\u001b[39;49m\u001b[43mparameters\u001b[49m\u001b[43m)\u001b[49m\n",
      "File \u001b[1;32mc:\\python39\\lib\\site-packages\\pydub\\audio_segment.py:773\u001b[0m, in \u001b[0;36mAudioSegment.from_file\u001b[1;34m(cls, file, format, codec, parameters, start_second, duration, **kwargs)\u001b[0m\n\u001b[0;32m    771\u001b[0m     \u001b[38;5;28;01mif\u001b[39;00m close_file:\n\u001b[0;32m    772\u001b[0m         file\u001b[38;5;241m.\u001b[39mclose()\n\u001b[1;32m--> 773\u001b[0m     \u001b[38;5;28;01mraise\u001b[39;00m CouldntDecodeError(\n\u001b[0;32m    774\u001b[0m         \u001b[38;5;124m\"\u001b[39m\u001b[38;5;124mDecoding failed. ffmpeg returned error code: \u001b[39m\u001b[38;5;132;01m{0}\u001b[39;00m\u001b[38;5;130;01m\\n\u001b[39;00m\u001b[38;5;130;01m\\n\u001b[39;00m\u001b[38;5;124mOutput from ffmpeg/avlib:\u001b[39m\u001b[38;5;130;01m\\n\u001b[39;00m\u001b[38;5;130;01m\\n\u001b[39;00m\u001b[38;5;132;01m{1}\u001b[39;00m\u001b[38;5;124m\"\u001b[39m\u001b[38;5;241m.\u001b[39mformat(\n\u001b[0;32m    775\u001b[0m             p\u001b[38;5;241m.\u001b[39mreturncode, p_err\u001b[38;5;241m.\u001b[39mdecode(errors\u001b[38;5;241m=\u001b[39m\u001b[38;5;124m'\u001b[39m\u001b[38;5;124mignore\u001b[39m\u001b[38;5;124m'\u001b[39m) ))\n\u001b[0;32m    777\u001b[0m p_out \u001b[38;5;241m=\u001b[39m \u001b[38;5;28mbytearray\u001b[39m(p_out)\n\u001b[0;32m    778\u001b[0m fix_wav_headers(p_out)\n",
      "\u001b[1;31mCouldntDecodeError\u001b[0m: Decoding failed. ffmpeg returned error code: 1\n\nOutput from ffmpeg/avlib:\n\nffmpeg version 5.0.1-essentials_build-www.gyan.dev Copyright (c) 2000-2022 the FFmpeg developers\r\n  built with gcc 11.2.0 (Rev7, Built by MSYS2 project)\r\n  configuration: --enable-gpl --enable-version3 --enable-static --disable-w32threads --disable-autodetect --enable-fontconfig --enable-iconv --enable-gnutls --enable-libxml2 --enable-gmp --enable-lzma --enable-zlib --enable-libsrt --enable-libssh --enable-libzmq --enable-avisynth --enable-sdl2 --enable-libwebp --enable-libx264 --enable-libx265 --enable-libxvid --enable-libaom --enable-libopenjpeg --enable-libvpx --enable-libass --enable-libfreetype --enable-libfribidi --enable-libvidstab --enable-libvmaf --enable-libzimg --enable-amf --enable-cuda-llvm --enable-cuvid --enable-ffnvcodec --enable-nvdec --enable-nvenc --enable-d3d11va --enable-dxva2 --enable-libmfx --enable-libgme --enable-libopenmpt --enable-libopencore-amrwb --enable-libmp3lame --enable-libtheora --enable-libvo-amrwbenc --enable-libgsm --enable-libopencore-amrnb --enable-libopus --enable-libspeex --enable-libvorbis --enable-librubberband\r\n  libavutil      57. 17.100 / 57. 17.100\r\n  libavcodec     59. 18.100 / 59. 18.100\r\n  libavformat    59. 16.100 / 59. 16.100\r\n  libavdevice    59.  4.100 / 59.  4.100\r\n  libavfilter     8. 24.100 /  8. 24.100\r\n  libswscale      6.  4.100 /  6.  4.100\r\n  libswresample   4.  3.100 /  4.  3.100\r\n  libpostproc    56.  3.100 / 56.  3.100\r\n[mp3float @ 0000026ee2ff4f00] Header missing\r\n    Last message repeated 87 times\r\n[mp3 @ 0000026ee2febd00] Could not find codec parameters for stream 0 (Audio: mp3 (mp3float), 0 channels, fltp): unspecified frame size\r\nConsider increasing the value for the 'analyzeduration' (0) and 'probesize' (5000000) options\r\nInput #0, mp3, from './data/beeBird/beeBird.mp3':\r\n  Duration: N/A, start: 0.000000, bitrate: N/A\r\n  Stream #0:0: Audio: mp3, 0 channels, fltp\r\nStream mapping:\r\n  Stream #0:0 -> #0:0 (mp3 (mp3float) -> pcm_s16le (native))\r\nPress [q] to stop, [?] for help\r\n[mp3float @ 0000026ee2fffc00] Header missing\r\nError while decoding stream #0:0: Invalid data found when processing input\r\n[mp3float @ 0000026ee2fffc00] Header missing\r\nError while decoding stream #0:0: Invalid data found when processing input\r\n[mp3float @ 0000026ee2fffc00] Header missing\r\nError while decoding stream #0:0: Invalid data found when processing input\r\n[mp3float @ 0000026ee2fffc00] Header missing\r\nError while decoding stream #0:0: Invalid data found when processing input\r\n[mp3float @ 0000026ee2fffc00] Header missing\r\nError while decoding stream #0:0: Invalid data found when processing input\r\n[mp3float @ 0000026ee2fffc00] Header missing\r\nError while decoding stream #0:0: Invalid data found when processing input\r\n[mp3float @ 0000026ee2fffc00] Header missing\r\nError while decoding stream #0:0: Invalid data found when processing input\r\n[mp3float @ 0000026ee2fffc00] Header missing\r\nError while decoding stream #0:0: Invalid data found when processing input\r\n[mp3float @ 0000026ee2fffc00] Header missing\r\nError while decoding stream #0:0: Invalid data found when processing input\r\n[mp3float @ 0000026ee2fffc00] Header missing\r\nError while decoding stream #0:0: Invalid data found when processing input\r\n[mp3float @ 0000026ee2fffc00] Header missing\r\nError while decoding stream #0:0: Invalid data found when processing input\r\n[mp3float @ 0000026ee2fffc00] Header missing\r\nError while decoding stream #0:0: Invalid data found when processing input\r\n[mp3float @ 0000026ee2fffc00] Header missing\r\nError while decoding stream #0:0: Invalid data found when processing input\r\n[mp3float @ 0000026ee2fffc00] Header missing\r\nError while decoding stream #0:0: Invalid data found when processing input\r\n[mp3float @ 0000026ee2fffc00] Header missing\r\nError while decoding stream #0:0: Invalid data found when processing input\r\n[mp3float @ 0000026ee2fffc00] Header missing\r\nError while decoding stream #0:0: Invalid data found when processing input\r\n[mp3float @ 0000026ee2fffc00] Header missing\r\nError while decoding stream #0:0: Invalid data found when processing input\r\n[mp3float @ 0000026ee2fffc00] Header missing\r\nError while decoding stream #0:0: Invalid data found when processing input\r\n[mp3float @ 0000026ee2fffc00] Header missing\r\nError while decoding stream #0:0: Invalid data found when processing input\r\n[mp3float @ 0000026ee2fffc00] Header missing\r\nError while decoding stream #0:0: Invalid data found when processing input\r\n[mp3float @ 0000026ee2fffc00] Header missing\r\nError while decoding stream #0:0: Invalid data found when processing input\r\n[mp3float @ 0000026ee2fffc00] Header missing\r\nError while decoding stream #0:0: Invalid data found when processing input\r\n[mp3float @ 0000026ee2fffc00] Header missing\r\nError while decoding stream #0:0: Invalid data found when processing input\r\n[mp3float @ 0000026ee2fffc00] Header missing\r\nError while decoding stream #0:0: Invalid data found when processing input\r\n[mp3float @ 0000026ee2fffc00] Header missing\r\nError while decoding stream #0:0: Invalid data found when processing input\r\n[mp3float @ 0000026ee2fffc00] Header missing\r\nError while decoding stream #0:0: Invalid data found when processing input\r\n[mp3float @ 0000026ee2fffc00] Header missing\r\nError while decoding stream #0:0: Invalid data found when processing input\r\n[mp3float @ 0000026ee2fffc00] Header missing\r\nError while decoding stream #0:0: Invalid data found when processing input\r\n[mp3float @ 0000026ee2fffc00] Header missing\r\nError while decoding stream #0:0: Invalid data found when processing input\r\n[mp3float @ 0000026ee2fffc00] Header missing\r\nError while decoding stream #0:0: Invalid data found when processing input\r\n[mp3float @ 0000026ee2fffc00] Header missing\r\nError while decoding stream #0:0: Invalid data found when processing input\r\n[mp3float @ 0000026ee2fffc00] Header missing\r\nError while decoding stream #0:0: Invalid data found when processing input\r\n[mp3float @ 0000026ee2fffc00] Header missing\r\nError while decoding stream #0:0: Invalid data found when processing input\r\n[mp3float @ 0000026ee2fffc00] Header missing\r\nError while decoding stream #0:0: Invalid data found when processing input\r\n[mp3float @ 0000026ee2fffc00] Header missing\r\nError while decoding stream #0:0: Invalid data found when processing input\r\n[mp3float @ 0000026ee2fffc00] Header missing\r\nError while decoding stream #0:0: Invalid data found when processing input\r\n[mp3float @ 0000026ee2fffc00] Header missing\r\nError while decoding stream #0:0: Invalid data found when processing input\r\n[mp3float @ 0000026ee2fffc00] Header missing\r\nError while decoding stream #0:0: Invalid data found when processing input\r\n[mp3float @ 0000026ee2fffc00] Header missing\r\nError while decoding stream #0:0: Invalid data found when processing input\r\n[mp3float @ 0000026ee2fffc00] Header missing\r\nError while decoding stream #0:0: Invalid data found when processing input\r\n[mp3float @ 0000026ee2fffc00] Header missing\r\nError while decoding stream #0:0: Invalid data found when processing input\r\n[mp3float @ 0000026ee2fffc00] Header missing\r\nError while decoding stream #0:0: Invalid data found when processing input\r\n[mp3float @ 0000026ee2fffc00] Header missing\r\nError while decoding stream #0:0: Invalid data found when processing input\r\n[mp3float @ 0000026ee2fffc00] Header missing\r\nError while decoding stream #0:0: Invalid data found when processing input\r\n[mp3float @ 0000026ee2fffc00] Header missing\r\nError while decoding stream #0:0: Invalid data found when processing input\r\n[mp3float @ 0000026ee2fffc00] Header missing\r\nError while decoding stream #0:0: Invalid data found when processing input\r\n[mp3float @ 0000026ee2fffc00] Header missing\r\nError while decoding stream #0:0: Invalid data found when processing input\r\n[mp3float @ 0000026ee2fffc00] Header missing\r\nError while decoding stream #0:0: Invalid data found when processing input\r\n[mp3float @ 0000026ee2fffc00] Header missing\r\nError while decoding stream #0:0: Invalid data found when processing input\r\n[mp3float @ 0000026ee2fffc00] Header missing\r\nError while decoding stream #0:0: Invalid data found when processing input\r\n[mp3float @ 0000026ee2fffc00] Header missing\r\nError while decoding stream #0:0: Invalid data found when processing input\r\n[mp3float @ 0000026ee2fffc00] Header missing\r\nError while decoding stream #0:0: Invalid data found when processing input\r\n[mp3float @ 0000026ee2fffc00] Header missing\r\nError while decoding stream #0:0: Invalid data found when processing input\r\n[mp3float @ 0000026ee2fffc00] Header missing\r\nError while decoding stream #0:0: Invalid data found when processing input\r\n[mp3float @ 0000026ee2fffc00] Header missing\r\nError while decoding stream #0:0: Invalid data found when processing input\r\n[mp3float @ 0000026ee2fffc00] Header missing\r\nError while decoding stream #0:0: Invalid data found when processing input\r\n[mp3float @ 0000026ee2fffc00] Header missing\r\nError while decoding stream #0:0: Invalid data found when processing input\r\n[mp3float @ 0000026ee2fffc00] Header missing\r\nError while decoding stream #0:0: Invalid data found when processing input\r\n[mp3float @ 0000026ee2fffc00] Header missing\r\nError while decoding stream #0:0: Invalid data found when processing input\r\n[mp3float @ 0000026ee2fffc00] Header missing\r\nError while decoding stream #0:0: Invalid data found when processing input\r\n[mp3float @ 0000026ee2fffc00] Header missing\r\nError while decoding stream #0:0: Invalid data found when processing input\r\n[mp3float @ 0000026ee2fffc00] Header missing\r\nError while decoding stream #0:0: Invalid data found when processing input\r\n[mp3float @ 0000026ee2fffc00] Header missing\r\nError while decoding stream #0:0: Invalid data found when processing input\r\n[mp3float @ 0000026ee2fffc00] Header missing\r\nError while decoding stream #0:0: Invalid data found when processing input\r\n[mp3float @ 0000026ee2fffc00] Header missing\r\nError while decoding stream #0:0: Invalid data found when processing input\r\n[mp3float @ 0000026ee2fffc00] Header missing\r\nError while decoding stream #0:0: Invalid data found when processing input\r\n[mp3float @ 0000026ee2fffc00] Header missing\r\nError while decoding stream #0:0: Invalid data found when processing input\r\n[mp3float @ 0000026ee2fffc00] Header missing\r\nError while decoding stream #0:0: Invalid data found when processing input\r\n[mp3float @ 0000026ee2fffc00] Header missing\r\nError while decoding stream #0:0: Invalid data found when processing input\r\n[mp3float @ 0000026ee2fffc00] Header missing\r\nError while decoding stream #0:0: Invalid data found when processing input\r\n[mp3float @ 0000026ee2fffc00] Header missing\r\nError while decoding stream #0:0: Invalid data found when processing input\r\n[mp3float @ 0000026ee2fffc00] Header missing\r\nError while decoding stream #0:0: Invalid data found when processing input\r\n[mp3float @ 0000026ee2fffc00] Header missing\r\nError while decoding stream #0:0: Invalid data found when processing input\r\n[mp3float @ 0000026ee2fffc00] Header missing\r\nError while decoding stream #0:0: Invalid data found when processing input\r\n[mp3float @ 0000026ee2fffc00] Header missing\r\nError while decoding stream #0:0: Invalid data found when processing input\r\n[mp3float @ 0000026ee2fffc00] Header missing\r\nError while decoding stream #0:0: Invalid data found when processing input\r\n[mp3float @ 0000026ee2fffc00] Header missing\r\nError while decoding stream #0:0: Invalid data found when processing input\r\n[mp3float @ 0000026ee2fffc00] Header missing\r\nError while decoding stream #0:0: Invalid data found when processing input\r\n[mp3float @ 0000026ee2fffc00] Header missing\r\nError while decoding stream #0:0: Invalid data found when processing input\r\n[mp3float @ 0000026ee2fffc00] Header missing\r\nError while decoding stream #0:0: Invalid data found when processing input\r\n[mp3float @ 0000026ee2fffc00] Header missing\r\nError while decoding stream #0:0: Invalid data found when processing input\r\n[mp3float @ 0000026ee2fffc00] Header missing\r\nError while decoding stream #0:0: Invalid data found when processing input\r\n[mp3float @ 0000026ee2fffc00] Header missing\r\nError while decoding stream #0:0: Invalid data found when processing input\r\n[mp3float @ 0000026ee2fffc00] Header missing\r\nError while decoding stream #0:0: Invalid data found when processing input\r\n[mp3float @ 0000026ee2fffc00] Header missing\r\nError while decoding stream #0:0: Invalid data found when processing input\r\n[mp3float @ 0000026ee2fffc00] Header missing\r\nError while decoding stream #0:0: Invalid data found when processing input\r\n[mp3float @ 0000026ee2fffc00] Header missing\r\nError while decoding stream #0:0: Invalid data found when processing input\r\n[mp3float @ 0000026ee2fffc00] Header missing\r\nError while decoding stream #0:0: Invalid data found when processing input\r\n[abuffer @ 0000026ee3066b00] Value inf for parameter 'time_base' out of range [0 - 2.14748e+09]\r\n    Last message repeated 3 times\r\n[abuffer @ 0000026ee3066b00] Error setting option time_base to value 1/0.\r\n[graph_0_in_0_0 @ 0000026ee302f180] Error applying options to the filter.\r\nError reinitializing filters!\r\nError while filtering: Result too large\r\nFinishing stream 0:0 without any data written to it.\r\n[abuffer @ 0000026ee30665c0] Value inf for parameter 'time_base' out of range [0 - 2.14748e+09]\r\n    Last message repeated 3 times\r\n[abuffer @ 0000026ee30665c0] Error setting option time_base to value 1/0.\r\n[graph_0_in_0_0 @ 0000026ee2ffec40] Error applying options to the filter.\r\nError configuring filter graph\r\nConversion failed!\r\n"
     ]
    }
   ],
   "source": [
    "song = AudioSegment.from_mp3('./data/beeBird/beeBird.mp3')"
   ]
  },
  {
   "cell_type": "code",
   "execution_count": 33,
   "id": "f2c4bd9a-de20-4d35-aa29-bf570dd96f27",
   "metadata": {},
   "outputs": [
    {
     "data": {
      "text/plain": [
       "<_io.BufferedRandom name='beeBird2.wav'>"
      ]
     },
     "execution_count": 33,
     "metadata": {},
     "output_type": "execute_result"
    }
   ],
   "source": [
    "song.export('beeBird2.wav', format='wav')"
   ]
  },
  {
   "cell_type": "code",
   "execution_count": 34,
   "id": "606a1073-1be5-4973-982c-ea396dac0084",
   "metadata": {},
   "outputs": [],
   "source": [
    "song = AudioSegment.from_wav('beeBird2.wav')"
   ]
  },
  {
   "cell_type": "code",
   "execution_count": null,
   "id": "ba41d09b-7091-41d7-95c1-47f953029422",
   "metadata": {},
   "outputs": [],
   "source": []
  }
 ],
 "metadata": {
  "kernelspec": {
   "display_name": "Python 3 (ipykernel)",
   "language": "python",
   "name": "python3"
  },
  "language_info": {
   "codemirror_mode": {
    "name": "ipython",
    "version": 3
   },
   "file_extension": ".py",
   "mimetype": "text/x-python",
   "name": "python",
   "nbconvert_exporter": "python",
   "pygments_lexer": "ipython3",
   "version": "3.9.1"
  }
 },
 "nbformat": 4,
 "nbformat_minor": 5
}
